# xmcd
#
# Track frame offsets: 
#        150
#        14418
#        28302
#        44645
#        59546
#        76811
#        90708
#        104786
#        127386
#        145528
#        161235
#        174375
#
# Disc length: 2610 seconds
#
# Revision: 2
# Processed by: cddbd v1.5.2PL0 Copyright (c) Steve Scherf et al.
# Submitted via: ExactAudioCopy v1.3
#
DISCID=ae0a300c
DTITLE=Ferenczy - Tíz kicsi elefánt
DYEAR=2010
DGENRE=Blues
TTITLE0=Öreg leszek
TTITLE1=Repűlj még !
TTITLE2=Mennyország@.hu
TTITLE3=Gőzmalac
TTITLE4=Sárkányfű
TTITLE5=Nekem túl szép
TTITLE6=Tízkicsielefánt
TTITLE7=Dumm-dumm
TTITLE8=Mary jane
TTITLE9=Villa negra
TTITLE10=Jön a lány
TTITLE11=Amikor egyedül vagy
EXTD=
EXTT0=
EXTT1=
EXTT2=
EXTT3=
EXTT4=
EXTT5=
EXTT6=
EXTT7=
EXTT8=
EXTT9=
EXTT10=
EXTT11=
PLAYORDER=
